 http://www.imdb.com/title/tt0032553/

Source: The.Great.Dictator.1940.720p.BluRay.x264-THUGLiNE

Subs: Arabic, Bulgarian, Dutch, English, Farsi-Persian, Greek, Hebrew, Portuguese, Servian, Spanish, Swedish and Vietnamese.

Sample and Screens included.

General
Complete name                    : The Great Dictator-720p MP4 AAC x264 BRRip 1940-CC.mp4
Format                           : MPEG-4
Format profile                   : Base Media
Codec ID                         : isom
File size                        : 1.97 GiB
Duration                         : 2h 5mn
Overall bit rate                 : 2 250 Kbps
Encoded date                     : UTC 2012-07-05 15:36:22

Video
ID                               : 1
Format                           : AVC
Format/Info                      : Advanced Video Codec
Format profile                   : High@L3.1
Format settings, CABAC           : Yes
Format settings, ReFrames        : 5 frames
Codec ID                         : avc1
Codec ID/Info                    : Advanced Video Coding
Duration                         : 2h 5mn
Bit rate mode                    : Variable
Bit rate                         : 2 076 Kbps
Nominal bit rate                 : 2 087 Kbps
Maximum bit rate                 : 22.0 Mbps
Width                            : 960 pixels
Height                           : 720 pixels
Display aspect ratio             : 4:3
Frame rate mode                  : Variable
Frame rate                       : 23.976 fps
Minimum frame rate               : 13.605 fps
Maximum frame rate               : 24.390 fps
Resolution                       : 24 bits
Colorimetry                      : 4:2:0
Scan type                        : Progressive
Bits/(Pixel*Frame)               : 0.125
Stream size                      : 1.82 GiB (92%)
Writing library                  : x264 core 112


Audio
ID                               : 2
Format                           : AAC
Format/Info                      : Advanced Audio Codec
Format version                   : Version 4
Format profile                   : LC
Format settings, SBR             : No
Codec ID                         : 40
Duration                         : 2h 5mn
Bit rate mode                    : Variable
Bit rate                         : 169 Kbps
Maximum bit rate                 : 210 Kbps
Channel(s)                       : 2 channels
Channel positions                : L R
Sampling rate                    : 48.0 KHz
Resolution                       : 16 bits
Stream size                      : 151 MiB (7%)
Language                         : English

Enjoy...

Requested by varuneric. ( more coming up )